<svg xmlns="http://www.w3.org/2000/svg" viewBox="0 0 64 64">
  <path d="M20 13 C20 8 16 5 11 5 M20 13 C20 8 24 5 29 5" stroke="#7dd3fc" stroke-width="4" fill="none" stroke-linecap="round"/>
  <path d="M4 36 C4 24 14 16 26 16 C38 16 48 24 48 36 C48 46 38 54 24 54 C12 54 4 46 4 36 Z" fill="#38bdf8"/>
  <path d="M45 34 C51 32 54 27 54 20 C57 24 58 28 57 31 C61 31 63 34 63 38 C58 41 50 41 45 38 Z" fill="#38bdf8"/>
  <circle cx="14" cy="33" r="2.6" fill="#082f49"/>
  <path d="M8 39 q5 4 10 0" stroke="#082f49" stroke-width="2" fill="none" stroke-linecap="round"/>
</svg>
